<?xml version="1.0" encoding="UTF-8"?>
<svg viewBox="0 0 46296.26 40689.13">

<path d="
  M 22983.64 21630.19
  l -2928.01 -1451.38
  c -1017.73,1483.99 -1758.21,2488.33 -3897.08,1902.25 -1678.91,-460.05 -2175.85,-2300.18 -2239.67,-3843.76 -87.17,-2108.39 649.94,-4543.46 3168.15,-4413.24 1609.13,83.19 2294.75,1032.23 2661.15,1885.36
  l 3196.99 -1638.9
  c -1574.75,-3004.31 -5265.13,-4026.05 -8393.32,-3188.81 -3328.66,890.9 -5014.61,3952.95 -4955.5,7255.23 60.43,3375.58 1680.8,6291.51 5161.55,7052.54 1697.16,371.06 3545.13,284.81 5116.74,-503.18 1216.27,-609.83 2567.56,-1786.86 3109,-3056.12
  z"
      />
</svg>
