<?xml version="1.0" encoding="UTF-8" standalone="no"?>
<!-- Creator: CorelDRAW 2018 (64-Bit Evaluation Version) -->

<svg
   xml:space="preserve"
   width="45.512222mm"
   height="40mm"
   version="1.1"
   style="clip-rule:evenodd;fill-rule:evenodd;image-rendering:optimizeQuality;shape-rendering:geometricPrecision;text-rendering:geometricPrecision"
   viewBox="0 0 4046.9978 3556.8504"
   id="svg60"
   sodipodi:docname="ccheart_black-inkscape-resized.svg"
   inkscape:version="1.2.1 (9c6d41e, 2022-07-14)"
   xmlns:inkscape="http://www.inkscape.org/namespaces/inkscape"
   xmlns:sodipodi="http://sodipodi.sourceforge.net/DTD/sodipodi-0.dtd"
   xmlns="http://www.w3.org/2000/svg"
   xmlns:svg="http://www.w3.org/2000/svg"><sodipodi:namedview
   id="namedview62"
   pagecolor="#ffffff"
   bordercolor="#666666"
   borderopacity="1.0"
   inkscape:showpageshadow="2"
   inkscape:pageopacity="0.0"
   inkscape:pagecheckerboard="0"
   inkscape:deskcolor="#d1d1d1"
   inkscape:document-units="mm"
   showgrid="false"
   inkscape:zoom="5.3776563"
   inkscape:cx="127.007"
   inkscape:cy="75.590551"
   inkscape:window-width="1920"
   inkscape:window-height="1016"
   inkscape:window-x="0"
   inkscape:window-y="27"
   inkscape:window-maximized="1"
   inkscape:current-layer="Layer_x0020_1" />
 <defs
   id="defs51">
  <style
   type="text/css"
   id="style49">
   <![CDATA[
    .fil0 {fill:black}
   ]]>
  </style>
 </defs>
 <g
   id="Layer_x0020_1"
   inkscape:label="Layer 1"
   inkscape:groupmode="layer">
  <metadata
   id="CorelCorpID_0Corel-Layer" />
  <g
   id="_1761831900240"
   transform="matrix(0.08741525,0,0,0.08741525,-0.00719142,-0.00715052)">
   <path
   class="fil0"
   d="m 23204.91,7530.98 c 2944.63,-3188.84 6384.04,-4639.01 10366.38,-4077.21 4110.34,579.88 7609.97,3518.41 8854.17,7479.01 957.39,3047.58 559.96,6460.83 -722.09,9573.35 C 39709.39,25347.1 33817.06,32228.22 23148.13,37038.98 12479.21,32228.22 6586.88,25347.1 4592.89,20506.13 3310.84,17393.61 2913.42,13980.36 3870.8,10932.78 5114.99,6972.18 8614.63,4033.65 12724.97,3453.77 c 3982.46,-561.82 7421.94,888.46 10366.64,4077.48 5.4,5.84 56.52,61.37 56.53,61.36 0.04,0.04 51.9,-56.36 56.79,-61.63 z m -56.79,-4522.44 C 16716.43,-2039.47 6635.87,-722.29 2000.47,6864.48 461.39,9383.51 -116.67,12312.23 19.17,15219.93 c 235.64,5043.59 2412.75,9452.27 5610.61,13256.78 4306.02,5122.9 10531.26,9148.59 17382.21,12152.72 9.53,4.18 88.63,38.56 136.13,59.69 41.66,-17.53 114.6,-50.41 137.01,-60.3 6815.65,-3004.07 13075.56,-7030.12 17381.33,-12152.12 3198.08,-3804.33 5374.97,-8213.2 5610.61,-13256.78 135.85,-2907.7 -442.2,-5836.43 -1981.3,-8355.45 C 39660.37,-722.3 29579.82,-2039.48 23148.12,3008.53 Z"
   id="path54" />
   <path
   class="fil0"
   d="m 22983.64,21630.19 -2928.01,-1451.38 c -1017.73,1483.99 -1758.21,2488.33 -3897.08,1902.25 -1678.91,-460.05 -2175.85,-2300.18 -2239.67,-3843.76 -87.17,-2108.39 649.94,-4543.46 3168.15,-4413.24 1609.13,83.19 2294.75,1032.23 2661.15,1885.36 l 3196.99,-1638.9 c -1574.75,-3004.31 -5265.13,-4026.05 -8393.32,-3188.81 -3328.66,890.9 -5014.61,3952.95 -4955.5,7255.23 60.43,3375.58 1680.8,6291.51 5161.55,7052.54 1697.16,371.06 3545.13,284.81 5116.74,-503.18 1216.27,-609.83 2567.56,-1786.86 3109,-3056.12 z m 13802.46,0 -2928.01,-1451.38 c -1017.73,1483.99 -1758.21,2488.33 -3897.08,1902.25 -1678.91,-460.05 -2175.86,-2300.18 -2239.67,-3843.76 -87.18,-2108.39 649.94,-4543.46 3168.15,-4413.24 1609.13,83.19 2294.74,1032.23 2661.15,1885.36 l 3196.99,-1638.9 c -1574.75,-3004.31 -5265.14,-4026.05 -8393.32,-3188.81 -3328.66,890.9 -5014.61,3952.95 -4955.5,7255.23 60.42,3375.58 1680.8,6291.51 5161.55,7052.54 1697.16,371.06 3545.13,284.81 5116.74,-503.18 1216.27,-609.83 2567.56,-1786.86 3109,-3056.12 z"
   id="path56" />
  </g>
 </g>
</svg>
